<svg xmlns="http://www.w3.org/2000/svg" xmlns:xlink="http://www.w3.org/1999/xlink" contentStyleType="text/css" data-diagram-type="CLASS" height="2370px" preserveAspectRatio="none" style="width:3975px;height:2370px;background:#FFFFFF;" version="1.1" viewBox="0 0 3975 2370" width="3975px" zoomAndPan="magnify"><title>YerbEngine - Detailed Class Diagram</title><defs/><g><g class="title" data-source-line="4"><text fill="#000000" font-family="sans-serif" font-size="14" font-weight="bold" lengthAdjust="spacing" textLength="253.5496" x="1853.8052" y="24.9659">YerbEngine - Detailed Class Diagram</text></g><!--cluster Core--><g class="cluster" data-entity="Core" data-source-line="7" data-uid="ent0002" id="cluster_Core"><path d="M390.91,588.6699 L424.6559,588.6699 A3.75,3.75 0 0 1 427.1559,591.1699 L434.1559,613.7378 L1295.55,613.7378 A2.5,2.5 0 0 1 1298.05,616.2378 L1298.05,936.1699 A2.5,2.5 0 0 1 1295.55,938.6699 L390.91,938.6699 A2.5,2.5 0 0 1 388.41,936.1699 L388.41,591.1699 A2.5,2.5 0 0 1 390.91,588.6699" fill="none" style="stroke:#000000;stroke-width:1.5;"/><line style="stroke:#000000;stroke-width:1.5;" x1="388.41" x2="434.1559" y1="613.7378" y2="613.7378"/><text fill="#000000" font-family="sans-serif" font-size="14" font-weight="bold" lengthAdjust="spacing" textLength="32.7459" x="392.41" y="605.6358">Core</text></g><!--cluster Managers--><g class="cluster" data-entity="Managers" data-source-line="36" data-uid="ent0005" id="cluster_Managers"><path d="M1378.27,46.6699 L1448.8218,46.6699 A3.75,3.75 0 0 1 1451.3218,49.1699 L1458.3218,71.7378 L1874.9,71.7378 A2.5,2.5 0 0 1 1877.4,74.2378 L1877.4,897.1699 A2.5,2.5 0 0 1 1874.9,899.6699 L1378.27,899.6699 A2.5,2.5 0 0 1 1375.77,897.1699 L1375.77,49.1699 A2.5,2.5 0 0 1 1378.27,46.6699" fill="none" style="stroke:#000000;stroke-width:1.5;"/><line style="stroke:#000000;stroke-width:1.5;" x1="1375.77" x2="1458.3218" y1="71.7378" y2="71.7378"/><text fill="#000000" font-family="sans-serif" font-size="14" font-weight="bold" lengthAdjust="spacing" textLength="69.5518" x="1379.77" y="63.6358">Managers</text></g><!--cluster Asset Managers--><g class="cluster" data-entity="Asset Managers" data-source-line="37" data-uid="ent0006" id="cluster_Asset Managers"><path d="M1402.27,92.6699 L1513.9571,92.6699 A3.75,3.75 0 0 1 1516.4571,95.1699 L1523.4571,117.7378 L1850.9,117.7378 A2.5,2.5 0 0 1 1853.4,120.2378 L1853.4,530.1699 A2.5,2.5 0 0 1 1850.9,532.6699 L1402.27,532.6699 A2.5,2.5 0 0 1 1399.77,530.1699 L1399.77,95.1699 A2.5,2.5 0 0 1 1402.27,92.6699" fill="none" style="stroke:#000000;stroke-width:1.5;"/><line style="stroke:#000000;stroke-width:1.5;" x1="1399.77" x2="1523.4571" y1="117.7378" y2="117.7378"/><text fill="#000000" font-family="sans-serif" font-size="14" font-weight="bold" lengthAdjust="spacing" textLength="110.6871" x="1403.77" y="109.6358">Asset Managers</text></g><!--cluster System Managers--><g class="cluster" data-entity="System Managers" data-source-line="57" data-uid="ent0010" id="cluster_System Managers"><path d="M1456.97,556.6699 L1581.3586,556.6699 A3.75,3.75 0 0 1 1583.8586,559.1699 L1590.8586,581.7378 L1796.2,581.7378 A2.5,2.5 0 0 1 1798.7,584.2378 L1798.7,873.1699 A2.5,2.5 0 0 1 1796.2,875.6699 L1456.97,875.6699 A2.5,2.5 0 0 1 1454.47,873.1699 L1454.47,559.1699 A2.5,2.5 0 0 1 1456.97,556.6699" fill="none" style="stroke:#000000;stroke-width:1.5;"/><line style="stroke:#000000;stroke-width:1.5;" x1="1454.47" x2="1590.8586" y1="581.7378" y2="581.7378"/><text fill="#000000" font-family="sans-serif" font-size="14" font-weight="bold" lengthAdjust="spacing" textLength="123.3886" x="1458.47" y="573.6358">System Managers</text></g><!--cluster Configuration--><g class="cluster" data-entity="Configuration" data-source-line="74" data-uid="ent0013" id="cluster_Configuration"><path d="M957.84,2082.6699 L1055.6111,2082.6699 A3.75,3.75 0 0 1 1058.1111,2085.1699 L1065.1111,2107.7378 L1761.86,2107.7378 A2.5,2.5 0 0 1 1764.36,2110.2378 L1764.36,2361.1699 A2.5,2.5 0 0 1 1761.86,2363.6699 L957.84,2363.6699 A2.5,2.5 0 0 1 955.34,2361.1699 L955.34,2085.1699 A2.5,2.5 0 0 1 957.84,2082.6699" fill="none" style="stroke:#000000;stroke-width:1.5;"/><line style="stroke:#000000;stroke-width:1.5;" x1="955.34" x2="1065.1111" y1="2107.7378" y2="2107.7378"/><text fill="#000000" font-family="sans-serif" font-size="14" font-weight="bold" lengthAdjust="spacing" textLength="96.7711" x="959.34" y="2099.6358">Configuration</text></g><!--cluster ECS--><g class="cluster" data-entity="ECS" data-source-line="94" data-uid="ent0017" id="cluster_ECS"><path d="M1368.55,923.6699 L1395.1804,923.6699 A3.75,3.75 0 0 1 1397.6804,926.1699 L1404.6804,948.7378 L3965.66,948.7378 A2.5,2.5 0 0 1 3968.16,951.2378 L3968.16,2056.1699 A2.5,2.5 0 0 1 3965.66,2058.6699 L1368.55,2058.6699 A2.5,2.5 0 0 1 1366.05,2056.1699 L1366.05,926.1699 A2.5,2.5 0 0 1 1368.55,923.6699" fill="none" style="stroke:#000000;stroke-width:1.5;"/><line style="stroke:#000000;stroke-width:1.5;" x1="1366.05" x2="1404.6804" y1="948.7378" y2="948.7378"/><text fill="#000000" font-family="sans-serif" font-size="14" font-weight="bold" lengthAdjust="spacing" textLength="25.6304" x="1370.05" y="940.6358">ECS</text></g><!--class GameEngine--><g class="entity" data-entity="GameEngine" data-source-line="8" data-uid="ent0003" id="entity_GameEngine"><rect fill="#F1F1F1" height="295.8829" rx="2.5" ry="2.5" style="stroke:#181818;stroke-width:0.5;" width="419.8745" x="404.41" y="626.7299"/><ellipse cx="567.9784" cy="642.7299" fill="#ADD1B2" rx="11" ry="11" style="stroke:#181818;stroke-width:1;"/><path d="M568.0878,638.2611 Q567.1659,638.2611 566.4315,638.5736 Q565.7128,638.8861 565.2128,639.4799 Q564.7128,640.058 564.4315,640.933 Q564.1659,641.808 564.1659,642.9018 Q564.1659,644.3393 564.6034,645.3861 Q565.0565,646.433 565.9003,646.9799 Q566.7596,647.5268 568.0721,647.5268 Q568.8534,647.5268 569.5409,647.4018 Q570.244,647.2611 571.244,646.9486 L571.244,648.8236 Q570.3846,649.1518 569.619,649.2768 Q568.869,649.4018 567.8534,649.4018 Q565.9315,649.4018 564.619,648.6049 Q563.3221,647.7924 562.6659,646.3236 Q562.0096,644.8393 562.0096,642.8705 Q562.0096,641.4486 562.4003,640.2768 Q562.8065,639.0893 563.5878,638.2143 Q564.369,637.3393 565.5096,636.8705 Q566.6503,636.3861 568.119,636.3861 Q569.0721,636.3861 569.9628,636.5893 Q570.869,636.7768 571.8065,637.2455 L570.9784,639.0268 Q570.1971,638.6518 569.5409,638.4643 Q568.8846,638.2611 568.0878,638.2611 Z " fill="#000000"/><text fill="#000000" font-family="sans-serif" font-size="14" lengthAdjust="spacing" textLength="84.2377" x="588.4784" y="648.1619">GameEngine</text><line style="stroke:#181818;stroke-width:0.5;" x1="405.41" x2="823.2845" y1="658.7299" y2="658.7299"/><text fill="#000000" font-family="sans-serif" font-size="14" lengthAdjust="spacing" textLength="321.9567" x="410.41" y="677.6958">-m_fontManager: std::unique_ptr&lt;FontManager&gt;</text><text fill="#000000" font-family="sans-serif" font-size="14" lengthAdjust="spacing" textLength="363.7326" x="410.41" y="696.7638">-m_textureManager: std::unique_ptr&lt;TextureManager&gt;</text><text fill="#000000" font-family="sans-serif" font-size="14" lengthAdjust="spacing" textLength="341.0107" x="410.41" y="715.8317">-m_audioManager: std::unique_ptr&lt;AudioManager&gt;</text><text fill="#000000" font-family="sans-serif" font-size="14" lengthAdjust="spacing" textLength="407.8745" x="410.41" y="734.8996">-m_audioSampleQueue: std::unique_ptr&lt;AudioSampleQueue&gt;</text><text fill="#000000" font-family="sans-serif" font-size="14" lengthAdjust="spacing" textLength="338.2106" x="410.41" y="753.9675">-m_videoManager: std::unique_ptr&lt;VideoManager&gt;</text><text fill="#000000" font-family="sans-serif" font-size="14" lengthAdjust="spacing" textLength="175.5593" x="410.41" y="773.0354">-m_config: ConfigAdapter*</text><text fill="#000000" font-family="sans-serif" font-size="14" lengthAdjust="spacing" textLength="244.621" x="410.41" y="792.1033">-m_currentScene: shared_ptr&lt;Scene&gt;</text><text fill="#000000" font-family="sans-serif" font-size="14" lengthAdjust="spacing" textLength="112.9796" x="410.41" y="811.1713">-m_running: bool</text><line style="stroke:#181818;stroke-width:0.5;" x1="405.41" x2="823.2845" y1="819.2732" y2="819.2732"/><text fill="#000000" font-family="sans-serif" font-size="14" lengthAdjust="spacing" textLength="217.3631" x="410.41" y="838.2392">+GameEngine(configPath: string)</text><text fill="#000000" font-family="sans-serif" font-size="14" lengthAdjust="spacing" textLength="388.3444" x="410.41" y="857.3071">+LoadScene(name: string, scene: shared_ptr&lt;Scene&gt;) : void</text><text fill="#000000" font-family="sans-serif" font-size="14" lengthAdjust="spacing" textLength="199.5972" x="410.41" y="876.375">+GetConfig() : ConfigAdapter&amp;</text><text fill="#000000" font-family="sans-serif" font-size="14" lengthAdjust="spacing" textLength="81.2557" x="410.41" y="895.4429">+Run() : void</text><text fill="#000000" font-family="sans-serif" font-size="14" lengthAdjust="spacing" textLength="206.6112" x="410.41" y="914.5108">+UpdateLoop(delta: float) : void</text></g><!--class Scene--><g class="entity" data-entity="Scene" data-source-line="24" data-uid="ent0004" id="entity_Scene"><rect fill="#F1F1F1" height="200.5433" rx="2.5" ry="2.5" style="stroke:#181818;stroke-width:0.5;" width="339.7667" x="942.28" y="722.3999"/><ellipse cx="1090.1684" cy="738.3999" fill="#A9DCDF" rx="11" ry="11" style="stroke:#181818;stroke-width:1;"/><path d="M1093.5122,743.6499 L1092.0434,739.8999 L1087.6059,739.8999 L1086.1684,743.6499 L1084.0434,743.6499 L1088.9965,730.9311 L1090.7465,730.9311 L1095.6684,743.6499 L1093.5122,743.6499 Z M1090.1684,734.6968 Q1090.1215,734.5405 1089.9965,734.1811 Q1089.8715,733.8218 1089.7622,733.4468 Q1089.6528,733.0561 1089.8559,732.9936 Q1090.0122,733.1811 1089.9184,733.5405 Q1089.8247,733.8843 1089.7309,734.1811 Q1089.6372,734.4624 1089.559,734.6968 L1088.3247,738.0093 L1091.4028,738.0093 L1090.1684,734.6968 Z " fill="#000000"/><text fill="#000000" font-family="sans-serif" font-size="14" font-style="italic" lengthAdjust="spacing" textLength="35.4899" x="1110.6684" y="743.8319">Scene</text><line style="stroke:#181818;stroke-width:0.5;" x1="943.28" x2="1281.0467" y1="754.3999" y2="754.3999"/><text fill="#000000" font-family="sans-serif" font-size="14" lengthAdjust="spacing" textLength="205.8132" x="948.28" y="773.3658">-m_gameEngine: GameEngine*</text><line style="stroke:#181818;stroke-width:0.5;" x1="943.28" x2="1281.0467" y1="781.4678" y2="781.4678"/><text fill="#000000" font-family="sans-serif" font-size="14" lengthAdjust="spacing" textLength="199.9192" x="948.28" y="800.4338">+Scene(engine: GameEngine*)</text><text fill="#000000" font-family="sans-serif" font-size="14" lengthAdjust="spacing" textLength="217.4612" x="948.28" y="819.5017">+virtual update(delta: float) : void</text><text fill="#000000" font-family="sans-serif" font-size="14" lengthAdjust="spacing" textLength="154.8114" x="948.28" y="838.5696">+virtual sRender() : void</text><text fill="#000000" font-family="sans-serif" font-size="14" lengthAdjust="spacing" textLength="266.8669" x="948.28" y="857.6375">+virtual sDoAction(action: Action&amp;) : void</text><text fill="#000000" font-family="sans-serif" font-size="14" lengthAdjust="spacing" textLength="145.5574" x="948.28" y="876.7054">+virtual sAudio() : void</text><text fill="#000000" font-family="sans-serif" font-size="14" lengthAdjust="spacing" textLength="142.7294" x="948.28" y="895.7733">+virtual onEnd() : void</text><text fill="#000000" font-family="sans-serif" font-size="14" lengthAdjust="spacing" textLength="327.7667" x="948.28" y="914.8413">+virtual onSceneWindowResize(w: int, h: int) : void</text></g><!--class FontManager--><g class="entity" data-entity="FontManager" data-source-line="38" data-uid="ent0007" id="entity_FontManager"><rect fill="#F1F1F1" height="105.2038" rx="2.5" ry="2.5" style="stroke:#181818;stroke-width:0.5;" width="274.709" x="1489.23" y="131.0699"/><ellipse cx="1577.9407" cy="147.0699" fill="#ADD1B2" rx="11" ry="11" style="stroke:#181818;stroke-width:1;"/><path d="M1578.05,142.6011 Q1577.1282,142.6011 1576.3938,142.9136 Q1575.675,143.2261 1575.175,143.8199 Q1574.675,144.398 1574.3938,145.273 Q1574.1282,146.148 1574.1282,147.2418 Q1574.1282,148.6793 1574.5657,149.7261 Q1575.0188,150.773 1575.8625,151.3199 Q1576.7219,151.8668 1578.0344,151.8668 Q1578.8157,151.8668 1579.5032,151.7418 Q1580.2063,151.6011 1581.2063,151.2886 L1581.2063,153.1636 Q1580.3469,153.4918 1579.5813,153.6168 Q1578.8313,153.7418 1577.8157,153.7418 Q1575.8938,153.7418 1574.5813,152.9449 Q1573.2844,152.1324 1572.6282,150.6636 Q1571.9719,149.1793 1571.9719,147.2105 Q1571.9719,145.7886 1572.3625,144.6168 Q1572.7688,143.4293 1573.55,142.5543 Q1574.3313,141.6793 1575.4719,141.2105 Q1576.6125,140.7261 1578.0813,140.7261 Q1579.0344,140.7261 1579.925,140.9293 Q1580.8313,141.1168 1581.7688,141.5855 L1580.9407,143.3668 Q1580.1594,142.9918 1579.5032,142.8043 Q1578.8469,142.6011 1578.05,142.6011 Z " fill="#000000"/><text fill="#000000" font-family="sans-serif" font-size="14" lengthAdjust="spacing" textLength="88.7877" x="1598.4407" y="152.5019">FontManager</text><line style="stroke:#181818;stroke-width:0.5;" x1="1490.23" x2="1762.939" y1="163.0699" y2="163.0699"/><text fill="#000000" font-family="sans-serif" font-size="14" lengthAdjust="spacing" textLength="185.7233" x="1495.23" y="182.0358">-m_fonts: map&lt;string, Font&gt;</text><line style="stroke:#181818;stroke-width:0.5;" x1="1490.23" x2="1762.939" y1="190.1378" y2="190.1378"/><text fill="#000000" font-family="sans-serif" font-size="14" lengthAdjust="spacing" textLength="262.709" x="1495.23" y="209.1038">+loadFont(path: string, size: int) : FontID</text><text fill="#000000" font-family="sans-serif" font-size="14" lengthAdjust="spacing" textLength="171.9053" x="1495.23" y="228.1717">+getFont(id: FontID) : Font</text></g><!--class TextureManager--><g class="entity" data-entity="TextureManager" data-source-line="44" data-uid="ent0008" id="entity_TextureManager"><rect fill="#F1F1F1" height="105.2038" rx="2.5" ry="2.5" style="stroke:#181818;stroke-width:0.5;" width="259.869" x="1496.65" y="411.0699"/><ellipse cx="1567.4267" cy="427.0699" fill="#ADD1B2" rx="11" ry="11" style="stroke:#181818;stroke-width:1;"/><path d="M1567.5361,422.6011 Q1566.6142,422.6011 1565.8799,422.9136 Q1565.1611,423.2261 1564.6611,423.8199 Q1564.1611,424.398 1563.8799,425.273 Q1563.6142,426.148 1563.6142,427.2418 Q1563.6142,428.6793 1564.0517,429.7261 Q1564.5049,430.773 1565.3486,431.3199 Q1566.208,431.8668 1567.5205,431.8668 Q1568.3017,431.8668 1568.9892,431.7418 Q1569.6924,431.6011 1570.6924,431.2886 L1570.6924,433.1636 Q1569.833,433.4918 1569.0674,433.6168 Q1568.3174,433.7418 1567.3017,433.7418 Q1565.3799,433.7418 1564.0674,432.9449 Q1562.7705,432.1324 1562.1142,430.6636 Q1561.458,429.1793 1561.458,427.2105 Q1561.458,425.7886 1561.8486,424.6168 Q1562.2549,423.4293 1563.0361,422.5543 Q1563.8174,421.6793 1564.958,421.2105 Q1566.0986,420.7261 1567.5674,420.7261 Q1568.5205,420.7261 1569.4111,420.9293 Q1570.3174,421.1168 1571.2549,421.5855 L1570.4267,423.3668 Q1569.6455,422.9918 1568.9892,422.8043 Q1568.333,422.6011 1567.5361,422.6011 Z " fill="#000000"/><text fill="#000000" font-family="sans-serif" font-size="14" lengthAdjust="spacing" textLength="109.8156" x="1587.9267" y="432.5019">TextureManager</text><line style="stroke:#181818;stroke-width:0.5;" x1="1497.65" x2="1755.519" y1="443.0699" y2="443.0699"/><text fill="#000000" font-family="sans-serif" font-size="14" lengthAdjust="spacing" textLength="227.4991" x="1502.65" y="462.0358">-m_textures: map&lt;string, Texture&gt;</text><line style="stroke:#181818;stroke-width:0.5;" x1="1497.65" x2="1755.519" y1="470.1378" y2="470.1378"/><text fill="#000000" font-family="sans-serif" font-size="14" lengthAdjust="spacing" textLength="247.869" x="1502.65" y="489.1038">+loadTexture(path: string) : TextureID</text><text fill="#000000" font-family="sans-serif" font-size="14" lengthAdjust="spacing" textLength="234.9891" x="1502.65" y="508.1717">+getTexture(id: TextureID) : Texture</text></g><!--class AudioSampleQueue--><g class="entity" data-entity="AudioSampleQueue" data-source-line="50" data-uid="ent0009" id="entity_AudioSampleQueue"><rect fill="#F1F1F1" height="105.2038" rx="2.5" ry="2.5" style="stroke:#181818;stroke-width:0.5;" width="421.6384" x="1415.77" y="271.0699"/><ellipse cx="1556.8055" cy="287.0699" fill="#ADD1B2" rx="11" ry="11" style="stroke:#181818;stroke-width:1;"/><path d="M1556.9148,282.6011 Q1555.993,282.6011 1555.2586,282.9136 Q1554.5398,283.2261 1554.0398,283.8199 Q1553.5398,284.398 1553.2586,285.273 Q1552.993,286.148 1552.993,287.2418 Q1552.993,288.6793 1553.4305,289.7261 Q1553.8836,290.773 1554.7273,291.3199 Q1555.5867,291.8668 1556.8992,291.8668 Q1557.6805,291.8668 1558.368,291.7418 Q1559.0711,291.6011 1560.0711,291.2886 L1560.0711,293.1636 Q1559.2117,293.4918 1558.4461,293.6168 Q1557.6961,293.7418 1556.6805,293.7418 Q1554.7586,293.7418 1553.4461,292.9449 Q1552.1492,292.1324 1551.493,290.6636 Q1550.8367,289.1793 1550.8367,287.2105 Q1550.8367,285.7886 1551.2273,284.6168 Q1551.6336,283.4293 1552.4148,282.5543 Q1553.1961,281.6793 1554.3367,281.2105 Q1555.4773,280.7261 1556.9461,280.7261 Q1557.8992,280.7261 1558.7898,280.9293 Q1559.6961,281.1168 1560.6336,281.5855 L1559.8055,283.3668 Q1559.0242,282.9918 1558.368,282.8043 Q1557.7117,282.6011 1556.9148,282.6011 Z " fill="#000000"/><text fill="#000000" font-family="sans-serif" font-size="14" lengthAdjust="spacing" textLength="131.0675" x="1577.3055" y="292.5019">AudioSampleQueue</text><line style="stroke:#181818;stroke-width:0.5;" x1="1416.77" x2="1836.4084" y1="303.0699" y2="303.0699"/><text fill="#000000" font-family="sans-serif" font-size="14" lengthAdjust="spacing" textLength="198.3232" x="1421.77" y="322.0358">-queue: deque&lt;AudioSample&gt;</text><line style="stroke:#181818;stroke-width:0.5;" x1="1416.77" x2="1836.4084" y1="330.1378" y2="330.1378"/><text fill="#000000" font-family="sans-serif" font-size="14" lengthAdjust="spacing" textLength="409.6384" x="1421.77" y="349.1038">+queueSample(sampleId: AudioSampleID, volume: float) : void</text><text fill="#000000" font-family="sans-serif" font-size="14" lengthAdjust="spacing" textLength="101.9196" x="1421.77" y="368.1717">+update() : void</text></g><!--class AudioManager--><g class="entity" data-entity="AudioManager" data-source-line="58" data-uid="ent0011" id="entity_AudioManager"><rect fill="#F1F1F1" height="124.2717" rx="2.5" ry="2.5" style="stroke:#181818;stroke-width:0.5;" width="312.2288" x="1470.47" y="735.5299"/><ellipse cx="1573.5166" cy="751.5299" fill="#ADD1B2" rx="11" ry="11" style="stroke:#181818;stroke-width:1;"/><path d="M1573.626,747.0611 Q1572.7041,747.0611 1571.9697,747.3736 Q1571.251,747.6861 1570.751,748.2799 Q1570.251,748.858 1569.9697,749.733 Q1569.7041,750.608 1569.7041,751.7018 Q1569.7041,753.1393 1570.1416,754.1861 Q1570.5947,755.233 1571.4385,755.7799 Q1572.2978,756.3268 1573.6103,756.3268 Q1574.3916,756.3268 1575.0791,756.2018 Q1575.7822,756.0611 1576.7822,755.7486 L1576.7822,757.6236 Q1575.9228,757.9518 1575.1572,758.0768 Q1574.4072,758.2018 1573.3916,758.2018 Q1571.4697,758.2018 1570.1572,757.4049 Q1568.8603,756.5924 1568.2041,755.1236 Q1567.5478,753.6393 1567.5478,751.6705 Q1567.5478,750.2486 1567.9385,749.0768 Q1568.3447,747.8893 1569.126,747.0143 Q1569.9072,746.1393 1571.0478,745.6705 Q1572.1885,745.1861 1573.6572,745.1861 Q1574.6103,745.1861 1575.501,745.3893 Q1576.4072,745.5768 1577.3447,746.0455 L1576.5166,747.8268 Q1575.7353,747.4518 1575.0791,747.2643 Q1574.4228,747.0611 1573.626,747.0611 Z " fill="#000000"/><text fill="#000000" font-family="sans-serif" font-size="14" lengthAdjust="spacing" textLength="97.6356" x="1594.0166" y="756.9619">AudioManager</text><line style="stroke:#181818;stroke-width:0.5;" x1="1471.47" x2="1781.6988" y1="767.5299" y2="767.5299"/><text fill="#000000" font-family="sans-serif" font-size="14" lengthAdjust="spacing" textLength="233.2811" x="1476.47" y="786.4958">-m_tracks: map&lt;AudioTrack, Track&gt;</text><line style="stroke:#181818;stroke-width:0.5;" x1="1471.47" x2="1781.6988" y1="794.5978" y2="794.5978"/><text fill="#000000" font-family="sans-serif" font-size="14" lengthAdjust="spacing" textLength="300.2288" x="1476.47" y="813.5638">+playTrack(track: AudioTrack, loops: int) : void</text><text fill="#000000" font-family="sans-serif" font-size="14" lengthAdjust="spacing" textLength="132.2575" x="1476.47" y="832.6317">+muteTracks() : void</text><text fill="#000000" font-family="sans-serif" font-size="14" lengthAdjust="spacing" textLength="247.477" x="1476.47" y="851.6996">+getCurrentAudioTrack() : AudioTrack</text></g><!--class VideoManager--><g class="entity" data-entity="VideoManager" data-source-line="65" data-uid="ent0012" id="entity_VideoManager"><rect fill="#F1F1F1" height="105.2038" rx="2.5" ry="2.5" style="stroke:#181818;stroke-width:0.5;" width="222.6152" x="1515.28" y="595.0699"/><ellipse cx="1574.1708" cy="611.0699" fill="#ADD1B2" rx="11" ry="11" style="stroke:#181818;stroke-width:1;"/><path d="M1574.2801,606.6011 Q1573.3583,606.6011 1572.6239,606.9136 Q1571.9051,607.2261 1571.4051,607.8199 Q1570.9051,608.398 1570.6239,609.273 Q1570.3583,610.148 1570.3583,611.2418 Q1570.3583,612.6793 1570.7958,613.7261 Q1571.2489,614.773 1572.0926,615.3199 Q1572.952,615.8668 1574.2645,615.8668 Q1575.0458,615.8668 1575.7333,615.7418 Q1576.4364,615.6011 1577.4364,615.2886 L1577.4364,617.1636 Q1576.577,617.4918 1575.8114,617.6168 Q1575.0614,617.7418 1574.0458,617.7418 Q1572.1239,617.7418 1570.8114,616.9449 Q1569.5145,616.1324 1568.8583,614.6636 Q1568.202,613.1793 1568.202,611.2105 Q1568.202,609.7886 1568.5926,608.6168 Q1568.9989,607.4293 1569.7801,606.5543 Q1570.5614,605.6793 1571.702,605.2105 Q1572.8426,604.7261 1574.3114,604.7261 Q1575.2645,604.7261 1576.1551,604.9293 Q1577.0614,605.1168 1577.9989,605.5855 L1577.1708,607.3668 Q1576.3895,606.9918 1575.7333,606.8043 Q1575.077,606.6011 1574.2801,606.6011 Z " fill="#000000"/><text fill="#000000" font-family="sans-serif" font-size="14" lengthAdjust="spacing" textLength="96.3336" x="1594.6708" y="616.5019">VideoManager</text><line style="stroke:#181818;stroke-width:0.5;" x1="1516.28" x2="1736.8952" y1="627.0699" y2="627.0699"/><text fill="#000000" font-family="sans-serif" font-size="14" lengthAdjust="spacing" textLength="170.5893" x="1521.28" y="646.0358">-renderer: SDL_Renderer*</text><line style="stroke:#181818;stroke-width:0.5;" x1="1516.28" x2="1736.8952" y1="654.1378" y2="654.1378"/><text fill="#000000" font-family="sans-serif" font-size="14" lengthAdjust="spacing" textLength="210.6152" x="1521.28" y="673.1038">+getRenderer() : SDL_Renderer*</text><text fill="#000000" font-family="sans-serif" font-size="14" lengthAdjust="spacing" textLength="159.1653" x="1521.28" y="692.1717">+getWindowSize() : Vec2</text></g><!--class ConfigStore--><g class="entity" data-entity="ConfigStore" data-source-line="75" data-uid="ent0014" id="entity_ConfigStore"><rect fill="#F1F1F1" height="105.2038" rx="2.5" ry="2.5" style="stroke:#181818;stroke-width:0.5;" width="243.5451" x="1504.81" y="2202.0699"/><ellipse cx="1583.3847" cy="2218.0699" fill="#ADD1B2" rx="11" ry="11" style="stroke:#181818;stroke-width:1;"/><path d="M1583.4941,2213.6011 Q1582.5722,2213.6011 1581.8378,2213.9136 Q1581.1191,2214.2261 1580.6191,2214.8199 Q1580.1191,2215.398 1579.8378,2216.273 Q1579.5722,2217.148 1579.5722,2218.2418 Q1579.5722,2219.6793 1580.0097,2220.7261 Q1580.4628,2221.773 1581.3066,2222.3199 Q1582.1659,2222.8668 1583.4784,2222.8668 Q1584.2597,2222.8668 1584.9472,2222.7418 Q1585.6503,2222.6011 1586.6503,2222.2886 L1586.6503,2224.1636 Q1585.7909,2224.4918 1585.0253,2224.6168 Q1584.2753,2224.7418 1583.2597,2224.7418 Q1581.3378,2224.7418 1580.0253,2223.9449 Q1578.7284,2223.1324 1578.0722,2221.6636 Q1577.4159,2220.1793 1577.4159,2218.2105 Q1577.4159,2216.7886 1577.8066,2215.6168 Q1578.2128,2214.4293 1578.9941,2213.5543 Q1579.7753,2212.6793 1580.9159,2212.2105 Q1582.0566,2211.7261 1583.5253,2211.7261 Q1584.4784,2211.7261 1585.3691,2211.9293 Q1586.2753,2212.1168 1587.2128,2212.5855 L1586.3847,2214.3668 Q1585.6034,2213.9918 1584.9472,2213.8043 Q1584.2909,2213.6011 1583.4941,2213.6011 Z " fill="#000000"/><text fill="#000000" font-family="sans-serif" font-size="14" lengthAdjust="spacing" textLength="77.8957" x="1603.8847" y="2223.5019">ConfigStore</text><line style="stroke:#181818;stroke-width:0.5;" x1="1505.81" x2="1747.3551" y1="2234.0699" y2="2234.0699"/><text fill="#000000" font-family="sans-serif" font-size="14" lengthAdjust="spacing" textLength="202.8312" x="1510.81" y="2253.0358">-m_values: map&lt;string, string&gt;</text><line style="stroke:#181818;stroke-width:0.5;" x1="1505.81" x2="1747.3551" y1="2261.1378" y2="2261.1378"/><text fill="#000000" font-family="sans-serif" font-size="14" lengthAdjust="spacing" textLength="155.7354" x="1510.81" y="2280.1038">+get(key: string) : string</text><text fill="#000000" font-family="sans-serif" font-size="14" lengthAdjust="spacing" textLength="231.5451" x="1510.81" y="2299.1717">+set(key: string, value: string) : void</text></g><!--class JsonConfigProvider--><g class="entity" data-entity="JsonConfigProvider" data-source-line="81" data-uid="ent0015" id="entity_JsonConfigProvider"><rect fill="#F1F1F1" height="67.0679" rx="2.5" ry="2.5" style="stroke:#181818;stroke-width:0.5;" width="278.853" x="972.74" y="2280.1399"/><ellipse cx="1044.7207" cy="2296.1399" fill="#ADD1B2" rx="11" ry="11" style="stroke:#181818;stroke-width:1;"/><path d="M1044.8301,2291.6711 Q1043.9082,2291.6711 1043.1739,2291.9836 Q1042.4551,2292.2961 1041.9551,2292.8899 Q1041.4551,2293.468 1041.1739,2294.343 Q1040.9082,2295.218 1040.9082,2296.3118 Q1040.9082,2297.7493 1041.3457,2298.7961 Q1041.7989,2299.843 1042.6426,2300.3899 Q1043.502,2300.9368 1044.8145,2300.9368 Q1045.5957,2300.9368 1046.2832,2300.8118 Q1046.9864,2300.6711 1047.9864,2300.3586 L1047.9864,2302.2336 Q1047.127,2302.5618 1046.3614,2302.6868 Q1045.6114,2302.8118 1044.5957,2302.8118 Q1042.6739,2302.8118 1041.3614,2302.0149 Q1040.0645,2301.2024 1039.4082,2299.7336 Q1038.752,2298.2493 1038.752,2296.2805 Q1038.752,2294.8586 1039.1426,2293.6868 Q1039.5489,2292.4993 1040.3301,2291.6243 Q1041.1114,2290.7493 1042.252,2290.2805 Q1043.3926,2289.7961 1044.8614,2289.7961 Q1045.8145,2289.7961 1046.7051,2289.9993 Q1047.6114,2290.1868 1048.5489,2290.6555 L1047.7207,2292.4368 Q1046.9395,2292.0618 1046.2832,2291.8743 Q1045.627,2291.6711 1044.8301,2291.6711 Z " fill="#000000"/><text fill="#000000" font-family="sans-serif" font-size="14" lengthAdjust="spacing" textLength="126.3915" x="1065.2207" y="2301.5719">JsonConfigProvider</text><line style="stroke:#181818;stroke-width:0.5;" x1="973.74" x2="1250.593" y1="2312.1399" y2="2312.1399"/><line style="stroke:#181818;stroke-width:0.5;" x1="973.74" x2="1250.593" y1="2320.1399" y2="2320.1399"/><text fill="#000000" font-family="sans-serif" font-size="14" lengthAdjust="spacing" textLength="266.853" x="978.74" y="2339.1058">+loadFromFile(path: string) : ConfigStore</text></g><!--class ConfigAdapter--><g class="entity" data-entity="ConfigAdapter" data-source-line="85" data-uid="ent0016" id="entity_ConfigAdapter"><rect fill="#F1F1F1" height="124.2717" rx="2.5" ry="2.5" style="stroke:#181818;stroke-width:0.5;" width="281.653" x="971.34" y="2120.5299"/><ellipse cx="1060.0367" cy="2136.5299" fill="#ADD1B2" rx="11" ry="11" style="stroke:#181818;stroke-width:1;"/><path d="M1060.146,2132.0611 Q1059.2242,2132.0611 1058.4898,2132.3736 Q1057.771,2132.6861 1057.271,2133.2799 Q1056.771,2133.858 1056.4898,2134.733 Q1056.2242,2135.608 1056.2242,2136.7018 Q1056.2242,2138.1393 1056.6617,2139.1861 Q1057.1148,2140.233 1057.9585,2140.7799 Q1058.8179,2141.3268 1060.1304,2141.3268 Q1060.9117,2141.3268 1061.5992,2141.2018 Q1062.3023,2141.0611 1063.3023,2140.7486 L1063.3023,2142.6236 Q1062.4429,2142.9518 1061.6773,2143.0768 Q1060.9273,2143.2018 1059.9117,2143.2018 Q1057.9898,2143.2018 1056.6773,2142.4049 Q1055.3804,2141.5924 1054.7242,2140.1236 Q1054.0679,2138.6393 1054.0679,2136.6705 Q1054.0679,2135.2486 1054.4585,2134.0768 Q1054.8648,2132.8893 1055.646,2132.0143 Q1056.4273,2131.1393 1057.5679,2130.6705 Q1058.7085,2130.1861 1060.1773,2130.1861 Q1061.1304,2130.1861 1062.021,2130.3893 Q1062.9273,2130.5768 1063.8648,2131.0455 L1063.0367,2132.8268 Q1062.2554,2132.4518 1061.5992,2132.2643 Q1060.9429,2132.0611 1060.146,2132.0611 Z " fill="#000000"/><text fill="#000000" font-family="sans-serif" font-size="14" lengthAdjust="spacing" textLength="95.7596" x="1080.5367" y="2141.9619">ConfigAdapter</text><line style="stroke:#181818;stroke-width:0.5;" x1="972.34" x2="1251.993" y1="2152.5299" y2="2152.5299"/><text fill="#000000" font-family="sans-serif" font-size="14" lengthAdjust="spacing" textLength="131.4175" x="977.34" y="2171.4958">-store: ConfigStore*</text><line style="stroke:#181818;stroke-width:0.5;" x1="972.34" x2="1251.993" y1="2179.5978" y2="2179.5978"/><text fill="#000000" font-family="sans-serif" font-size="14" lengthAdjust="spacing" textLength="206.5132" x="977.34" y="2198.5638">+getInt(key: string, def: int) : int</text><text fill="#000000" font-family="sans-serif" font-size="14" lengthAdjust="spacing" textLength="245.2931" x="977.34" y="2217.6317">+getFloat(key: string, def: float) : float</text><text fill="#000000" font-family="sans-serif" font-size="14" lengthAdjust="spacing" textLength="269.653" x="977.34" y="2236.6996">+getString(key: string, def: string) : string</text></g><!--class EntityManager--><g class="entity" data-entity="EntityManager" data-source-line="95" data-uid="ent0018" id="entity_EntityManager"><rect fill="#F1F1F1" height="200.5433" rx="2.5" ry="2.5" style="stroke:#181818;stroke-width:0.5;" width="489.0762" x="1382.05" y="1401.3999"/><ellipse cx="1574.0173" cy="1417.3999" fill="#ADD1B2" rx="11" ry="11" style="stroke:#181818;stroke-width:1;"/><path d="M1574.1267,1412.9311 Q1573.2048,1412.9311 1572.4704,1413.2436 Q1571.7517,1413.5561 1571.2517,1414.1499 Q1570.7517,1414.728 1570.4704,1415.603 Q1570.2048,1416.478 1570.2048,1417.5718 Q1570.2048,1419.0093 1570.6423,1420.0561 Q1571.0954,1421.103 1571.9392,1421.6499 Q1572.7985,1422.1968 1574.111,1422.1968 Q1574.8923,1422.1968 1575.5798,1422.0718 Q1576.2829,1421.9311 1577.2829,1421.6186 L1577.2829,1423.4936 Q1576.4235,1423.8218 1575.6579,1423.9468 Q1574.9079,1424.0718 1573.8923,1424.0718 Q1571.9704,1424.0718 1570.6579,1423.2749 Q1569.361,1422.4624 1568.7048,1420.9936 Q1568.0485,1419.5093 1568.0485,1417.5405 Q1568.0485,1416.1186 1568.4392,1414.9468 Q1568.8454,1413.7593 1569.6267,1412.8843 Q1570.4079,1412.0093 1571.5485,1411.5405 Q1572.6892,1411.0561 1574.1579,1411.0561 Q1575.111,1411.0561 1576.0017,1411.2593 Q1576.9079,1411.4468 1577.8454,1411.9155 L1577.0173,1413.6968 Q1576.236,1413.3218 1575.5798,1413.1343 Q1574.9235,1412.9311 1574.1267,1412.9311 Z " fill="#000000"/><text fill="#000000" font-family="sans-serif" font-size="14" lengthAdjust="spacing" textLength="96.6416" x="1594.5173" y="1422.8319">EntityManager</text><line style="stroke:#181818;stroke-width:0.5;" x1="1383.05" x2="1870.1262" y1="1433.3999" y2="1433.3999"/><text fill="#000000" font-family="sans-serif" font-size="14" lengthAdjust="spacing" textLength="261.211" x="1388.05" y="1452.3658">-m_entities: vector&lt;shared_ptr&lt;Entity&gt;&gt;</text><text fill="#000000" font-family="sans-serif" font-size="14" lengthAdjust="spacing" textLength="252.419" x="1388.05" y="1471.4338">-m_toAdd: vector&lt;shared_ptr&lt;Entity&gt;&gt;</text><text fill="#000000" font-family="sans-serif" font-size="14" lengthAdjust="spacing" textLength="477.0762" x="1388.05" y="1490.5017">-m_entityMap: unordered_map&lt;EntityTags, vector&lt;shared_ptr&lt;Entity&gt;&gt;&gt;</text><text fill="#000000" font-family="sans-serif" font-size="14" lengthAdjust="spacing" textLength="145.6834" x="1388.05" y="1509.5696">-m_totalEntities: size_t</text><line style="stroke:#181818;stroke-width:0.5;" x1="1383.05" x2="1870.1262" y1="1517.6716" y2="1517.6716"/><text fill="#000000" font-family="sans-serif" font-size="14" lengthAdjust="spacing" textLength="311.4428" x="1388.05" y="1536.6375">+addEntity(tag: EntityTags) : shared_ptr&lt;Entity&gt;</text><text fill="#000000" font-family="sans-serif" font-size="14" lengthAdjust="spacing" textLength="289.1409" x="1388.05" y="1555.7054">+getEntities() : vector&lt;shared_ptr&lt;Entity&gt;&gt;&amp;</text><text fill="#000000" font-family="sans-serif" font-size="14" lengthAdjust="spacing" textLength="386.3005" x="1388.05" y="1574.7733">+getEntities(tag: EntityTags) : vector&lt;shared_ptr&lt;Entity&gt;&gt;&amp;</text><text fill="#000000" font-family="sans-serif" font-size="14" lengthAdjust="spacing" textLength="101.9196" x="1388.05" y="1593.8413">+update() : void</text></g><!--class Entity--><g class="entity" data-entity="Entity" data-source-line="106" data-uid="ent0019" id="entity_Entity"><rect fill="#F1F1F1" height="295.8829" rx="2.5" ry="2.5" style="stroke:#181818;stroke-width:0.5;" width="1273.9412" x="2038.12" y="1353.7299"/><ellipse cx="2652.1927" cy="1369.7299" fill="#ADD1B2" rx="11" ry="11" style="stroke:#181818;stroke-width:1;"/><path d="M2652.302,1365.2611 Q2651.3802,1365.2611 2650.6458,1365.5736 Q2649.927,1365.8861 2649.427,1366.4799 Q2648.927,1367.058 2648.6458,1367.933 Q2648.3802,1368.808 2648.3802,1369.9018 Q2648.3802,1371.3393 2648.8177,1372.3861 Q2649.2708,1373.433 2650.1145,1373.9799 Q2650.9739,1374.5268 2652.2864,1374.5268 Q2653.0677,1374.5268 2653.7552,1374.4018 Q2654.4583,1374.2611 2655.4583,1373.9486 L2655.4583,1375.8236 Q2654.5989,1376.1518 2653.8333,1376.2768 Q2653.0833,1376.4018 2652.0677,1376.4018 Q2650.1458,1376.4018 2648.8333,1375.6049 Q2647.5364,1374.7924 2646.8802,1373.3236 Q2646.2239,1371.8393 2646.2239,1369.8705 Q2646.2239,1368.4486 2646.6145,1367.2768 Q2647.0208,1366.0893 2647.802,1365.2143 Q2648.5833,1364.3393 2649.7239,1363.8705 Q2650.8645,1363.3861 2652.3333,1363.3861 Q2653.2864,1363.3861 2654.177,1363.5893 Q2655.0833,1363.7768 2656.0208,1364.2455 L2655.1927,1366.0268 Q2654.4114,1365.6518 2653.7552,1365.4643 Q2653.0989,1365.2611 2652.302,1365.2611 Z " fill="#000000"/><text fill="#000000" font-family="sans-serif" font-size="14" lengthAdjust="spacing" textLength="37.2959" x="2672.6927" y="1375.1619">Entity</text><line style="stroke:#181818;stroke-width:0.5;" x1="2039.12" x2="3311.0612" y1="1385.7299" y2="1385.7299"/><text fill="#000000" font-family="sans-serif" font-size="14" lengthAdjust="spacing" textLength="98.6156" x="2044.12" y="1404.6958">-m_active: bool</text><text fill="#000000" font-family="sans-serif" font-size="14" lengthAdjust="spacing" textLength="79.4917" x="2044.12" y="1423.7638">-m_id: size_t</text><text fill="#000000" font-family="sans-serif" font-size="14" lengthAdjust="spacing" textLength="120.9735" x="2044.12" y="1442.8317">-m_tag: EntityTags</text><text fill="#000000" font-family="sans-serif" font-size="14" lengthAdjust="spacing" textLength="1261.9412" x="2044.12" y="1461.8996">-m_components: tuple&lt;shared_ptr&lt;CTransform&gt;, shared_ptr&lt;CShape&gt;, shared_ptr&lt;CInput&gt;, shared_ptr&lt;CLifespan&gt;, shared_ptr&lt;CEffects&gt;, shared_ptr&lt;CBounceTracker&gt;, shared_ptr&lt;CSprite&gt;&gt;</text><line style="stroke:#181818;stroke-width:0.5;" x1="2039.12" x2="3311.0612" y1="1470.0016" y2="1470.0016"/><text fill="#000000" font-family="sans-serif" font-size="14" lengthAdjust="spacing" textLength="106.2596" x="2044.12" y="1488.9675">+isActive() : bool</text><text fill="#000000" font-family="sans-serif" font-size="14" lengthAdjust="spacing" textLength="117.2076" x="2044.12" y="1508.0354">+tag() : EntityTags</text><text fill="#000000" font-family="sans-serif" font-size="14" lengthAdjust="spacing" textLength="75.7257" x="2044.12" y="1527.1033">+id() : size_t</text><text fill="#000000" font-family="sans-serif" font-size="14" lengthAdjust="spacing" textLength="104.9016" x="2044.12" y="1546.1713">+destroy() : void</text><text fill="#000000" font-family="sans-serif" font-size="14" lengthAdjust="spacing" textLength="147.7974" x="2044.12" y="1565.2392">+getCenterPos() : Vec2</text><text fill="#000000" font-family="sans-serif" font-size="14" lengthAdjust="spacing" textLength="245.503" x="2044.12" y="1584.3071">+getComponent&lt;T&gt;() : shared_ptr&lt;T&gt;</text><text fill="#000000" font-family="sans-serif" font-size="14" lengthAdjust="spacing" textLength="271.403" x="2044.12" y="1603.375">+setComponent&lt;T&gt;(shared_ptr&lt;T&gt;) : void</text><text fill="#000000" font-family="sans-serif" font-size="14" lengthAdjust="spacing" textLength="207.0312" x="2044.12" y="1622.4429">+removeComponent&lt;T&gt;() : void</text><text fill="#000000" font-family="sans-serif" font-size="14" lengthAdjust="spacing" textLength="181.3553" x="2044.12" y="1641.5108">+hasComponent&lt;T&gt;() : bool</text></g><!--class CTransform--><g class="entity" data-entity="CTransform" data-source-line="122" data-uid="ent0020" id="entity_CTransform"><rect fill="#F1F1F1" height="105.2038" rx="2.5" ry="2.5" style="stroke:#181818;stroke-width:0.5;" width="293.2169" x="3542.01" y="1937.0699"/><ellipse cx="3645.4766" cy="1953.0699" fill="#ADD1B2" rx="11" ry="11" style="stroke:#181818;stroke-width:1;"/><path d="M3645.586,1948.6011 Q3644.6641,1948.6011 3643.9297,1948.9136 Q3643.211,1949.2261 3642.711,1949.8199 Q3642.211,1950.398 3641.9297,1951.273 Q3641.6641,1952.148 3641.6641,1953.2418 Q3641.6641,1954.6793 3642.1016,1955.7261 Q3642.5547,1956.773 3643.3985,1957.3199 Q3644.2578,1957.8668 3645.5703,1957.8668 Q3646.3516,1957.8668 3647.0391,1957.7418 Q3647.7422,1957.6011 3648.7422,1957.2886 L3648.7422,1959.1636 Q3647.8828,1959.4918 3647.1172,1959.6168 Q3646.3672,1959.7418 3645.3516,1959.7418 Q3643.4297,1959.7418 3642.1172,1958.9449 Q3640.8203,1958.1324 3640.1641,1956.6636 Q3639.5078,1955.1793 3639.5078,1953.2105 Q3639.5078,1951.7886 3639.8985,1950.6168 Q3640.3047,1949.4293 3641.086,1948.5543 Q3641.8672,1947.6793 3643.0078,1947.2105 Q3644.1485,1946.7261 3645.6172,1946.7261 Q3646.5703,1946.7261 3647.461,1946.9293 Q3648.3672,1947.1168 3649.3047,1947.5855 L3648.4766,1949.3668 Q3647.6953,1948.9918 3647.0391,1948.8043 Q3646.3828,1948.6011 3645.586,1948.6011 Z " fill="#000000"/><text fill="#000000" font-family="sans-serif" font-size="14" lengthAdjust="spacing" textLength="77.7837" x="3665.9766" y="1958.5019">CTransform</text><line style="stroke:#181818;stroke-width:0.5;" x1="3543.01" x2="3834.2269" y1="1969.0699" y2="1969.0699"/><text fill="#000000" font-family="sans-serif" font-size="14" lengthAdjust="spacing" textLength="159.2354" x="3548.01" y="1988.0358">-topLeftCornerPos: Vec2</text><text fill="#000000" font-family="sans-serif" font-size="14" lengthAdjust="spacing" textLength="92.5396" x="3548.01" y="2007.1038">-velocity: Vec2</text><line style="stroke:#181818;stroke-width:0.5;" x1="3543.01" x2="3834.2269" y1="2015.2057" y2="2015.2057"/><text fill="#000000" font-family="sans-serif" font-size="14" lengthAdjust="spacing" textLength="281.2169" x="3548.01" y="2034.1717">+CTransform(position: Vec2, velocity: Vec2)</text></g><!--class CShape--><g class="entity" data-entity="CShape" data-source-line="128" data-uid="ent0021" id="entity_CShape"><rect fill="#F1F1F1" height="124.2717" rx="2.5" ry="2.5" style="stroke:#181818;stroke-width:0.5;" width="527.1001" x="3425.06" y="1777.5299"/><ellipse cx="3659.5871" cy="1793.5299" fill="#ADD1B2" rx="11" ry="11" style="stroke:#181818;stroke-width:1;"/><path d="M3659.6965,1789.0611 Q3658.7746,1789.0611 3658.0403,1789.3736 Q3657.3215,1789.6861 3656.8215,1790.2799 Q3656.3215,1790.858 3656.0403,1791.733 Q3655.7746,1792.608 3655.7746,1793.7018 Q3655.7746,1795.1393 3656.2121,1796.1861 Q3656.6653,1797.233 3657.509,1797.7799 Q3658.3684,1798.3268 3659.6809,1798.3268 Q3660.4621,1798.3268 3661.1496,1798.2018 Q3661.8528,1798.0611 3662.8528,1797.7486 L3662.8528,1799.6236 Q3661.9934,1799.9518 3661.2278,1800.0768 Q3660.4778,1800.2018 3659.4621,1800.2018 Q3657.5403,1800.2018 3656.2278,1799.4049 Q3654.9309,1798.5924 3654.2746,1797.1236 Q3653.6184,1795.6393 3653.6184,1793.6705 Q3653.6184,1792.2486 3654.009,1791.0768 Q3654.4153,1789.8893 3655.1965,1789.0143 Q3655.9778,1788.1393 3657.1184,1787.6705 Q3658.259,1787.1861 3659.7278,1787.1861 Q3660.6809,1787.1861 3661.5715,1787.3893 Q3662.4778,1787.5768 3663.4153,1788.0455 L3662.5871,1789.8268 Q3661.8059,1789.4518 3661.1496,1789.2643 Q3660.4934,1789.0611 3659.6965,1789.0611 Z " fill="#000000"/><text fill="#000000" font-family="sans-serif" font-size="14" lengthAdjust="spacing" textLength="49.5458" x="3680.0871" y="1798.9619">CShape</text><line style="stroke:#181818;stroke-width:0.5;" x1="3426.06" x2="3951.1601" y1="1809.5299" y2="1809.5299"/><text fill="#000000" font-family="sans-serif" font-size="14" lengthAdjust="spacing" textLength="170.5893" x="3431.06" y="1828.4958">-renderer: SDL_Renderer*</text><text fill="#000000" font-family="sans-serif" font-size="14" lengthAdjust="spacing" textLength="97.1876" x="3431.06" y="1847.5638">-rect: SDL_Rect</text><text fill="#000000" font-family="sans-serif" font-size="14" lengthAdjust="spacing" textLength="111.5936" x="3431.06" y="1866.6317">-color: SDL_Color</text><line style="stroke:#181818;stroke-width:0.5;" x1="3426.06" x2="3951.1601" y1="1874.7336" y2="1874.7336"/><text fill="#000000" font-family="sans-serif" font-size="14" lengthAdjust="spacing" textLength="515.1001" x="3431.06" y="1893.6996">+CShape(renderer: SDL_Renderer*, height: float, width: float, color: SDL_Color)</text></g><!--class CInput--><g class="entity" data-entity="CInput" data-source-line="135" data-uid="ent0022" id="entity_CInput"><rect fill="#F1F1F1" height="143.3396" rx="2.5" ry="2.5" style="stroke:#181818;stroke-width:0.5;" width="116.9716" x="3630.13" y="1598.9999"/><ellipse cx="3663.3144" cy="1614.9999" fill="#ADD1B2" rx="11" ry="11" style="stroke:#181818;stroke-width:1;"/><path d="M3663.4238,1610.5311 Q3662.5019,1610.5311 3661.7675,1610.8436 Q3661.0488,1611.1561 3660.5488,1611.7499 Q3660.0488,1612.328 3659.7675,1613.203 Q3659.5019,1614.078 3659.5019,1615.1718 Q3659.5019,1616.6093 3659.9394,1617.6561 Q3660.3925,1618.703 3661.2363,1619.2499 Q3662.0956,1619.7968 3663.4081,1619.7968 Q3664.1894,1619.7968 3664.8769,1619.6718 Q3665.58,1619.5311 3666.58,1619.2186 L3666.58,1621.0936 Q3665.7206,1621.4218 3664.955,1621.5468 Q3664.205,1621.6718 3663.1894,1621.6718 Q3661.2675,1621.6718 3659.955,1620.8749 Q3658.6581,1620.0624 3658.0019,1618.5936 Q3657.3456,1617.1093 3657.3456,1615.1405 Q3657.3456,1613.7186 3657.7363,1612.5468 Q3658.1425,1611.3593 3658.9238,1610.4843 Q3659.705,1609.6093 3660.8456,1609.1405 Q3661.9863,1608.6561 3663.455,1608.6561 Q3664.4081,1608.6561 3665.2988,1608.8593 Q3666.205,1609.0468 3667.1425,1609.5155 L3666.3144,1611.2968 Q3665.5331,1610.9218 3664.8769,1610.7343 Q3664.2206,1610.5311 3663.4238,1610.5311 Z " fill="#000000"/><text fill="#000000" font-family="sans-serif" font-size="14" lengthAdjust="spacing" textLength="44.5618" x="3681.3554" y="1620.4319">CInput</text><line style="stroke:#181818;stroke-width:0.5;" x1="3631.13" x2="3746.1016" y1="1630.9999" y2="1630.9999"/><text fill="#000000" font-family="sans-serif" font-size="14" lengthAdjust="spacing" textLength="93.3797" x="3636.13" y="1649.9658">-forward: bool</text><text fill="#000000" font-family="sans-serif" font-size="14" lengthAdjust="spacing" textLength="104.9716" x="3636.13" y="1669.0338">-backward: bool</text><text fill="#000000" font-family="sans-serif" font-size="14" lengthAdjust="spacing" textLength="62.4398" x="3636.13" y="1688.1017">-left: bool</text><text fill="#000000" font-family="sans-serif" font-size="14" lengthAdjust="spacing" textLength="72.7717" x="3636.13" y="1707.1696">-right: bool</text><line style="stroke:#181818;stroke-width:0.5;" x1="3631.13" x2="3746.1016" y1="1715.2716" y2="1715.2716"/><text fill="#000000" font-family="sans-serif" font-size="14" lengthAdjust="spacing" textLength="60.9698" x="3636.13" y="1734.2375">+CInput()</text></g><!--class CLifespan--><g class="entity" data-entity="CLifespan" data-source-line="143" data-uid="ent0023" id="entity_CLifespan"><rect fill="#F1F1F1" height="124.2717" rx="2.5" ry="2.5" style="stroke:#181818;stroke-width:0.5;" width="195.4553" x="3590.89" y="1439.5299"/><ellipse cx="3652.2028" cy="1455.5299" fill="#ADD1B2" rx="11" ry="11" style="stroke:#181818;stroke-width:1;"/><path d="M3652.3121,1451.0611 Q3651.3903,1451.0611 3650.6559,1451.3736 Q3649.9371,1451.6861 3649.4371,1452.2799 Q3648.9371,1452.858 3648.6559,1453.733 Q3648.3903,1454.608 3648.3903,1455.7018 Q3648.3903,1457.1393 3648.8278,1458.1861 Q3649.2809,1459.233 3650.1246,1459.7799 Q3650.984,1460.3268 3652.2965,1460.3268 Q3653.0778,1460.3268 3653.7653,1460.2018 Q3654.4684,1460.0611 3655.4684,1459.7486 L3655.4684,1461.6236 Q3654.609,1461.9518 3653.8434,1462.0768 Q3653.0934,1462.2018 3652.0778,1462.2018 Q3650.1559,1462.2018 3648.8434,1461.4049 Q3647.5465,1460.5924 3646.8903,1459.1236 Q3646.234,1457.6393 3646.234,1455.6705 Q3646.234,1454.2486 3646.6246,1453.0768 Q3647.0309,1451.8893 3647.8121,1451.0143 Q3648.5934,1450.1393 3649.734,1449.6705 Q3650.8746,1449.1861 3652.3434,1449.1861 Q3653.2965,1449.1861 3654.1871,1449.3893 Q3655.0934,1449.5768 3656.0309,1450.0455 L3655.2028,1451.8268 Q3654.4215,1451.4518 3653.7653,1451.2643 Q3653.109,1451.0611 3652.3121,1451.0611 Z " fill="#000000"/><text fill="#000000" font-family="sans-serif" font-size="14" lengthAdjust="spacing" textLength="64.3297" x="3672.7028" y="1460.9619">CLifespan</text><line style="stroke:#181818;stroke-width:0.5;" x1="3591.89" x2="3785.3453" y1="1471.5299" y2="1471.5299"/><text fill="#000000" font-family="sans-serif" font-size="14" lengthAdjust="spacing" textLength="119.5595" x="3596.89" y="1490.4958">-birthTime: Uint64</text><text fill="#000000" font-family="sans-serif" font-size="14" lengthAdjust="spacing" textLength="107.2256" x="3596.89" y="1509.5638">-lifespan: Uint64</text><line style="stroke:#181818;stroke-width:0.5;" x1="3591.89" x2="3785.3453" y1="1517.6657" y2="1517.6657"/><text fill="#000000" font-family="sans-serif" font-size="14" lengthAdjust="spacing" textLength="80.7377" x="3596.89" y="1536.6317">+CLifespan()</text><text fill="#000000" font-family="sans-serif" font-size="14" lengthAdjust="spacing" textLength="183.4553" x="3596.89" y="1555.6996">+CLifespan(lifespan: Uint64)</text></g><!--class CEffects--><g class="entity" data-entity="CEffects" data-source-line="150" data-uid="ent0024" id="entity_CEffects"><rect fill="#F1F1F1" height="162.4075" rx="2.5" ry="2.5" style="stroke:#181818;stroke-width:0.5;" width="265.889" x="3555.67" y="1242.4699"/><ellipse cx="3658.0446" cy="1258.4699" fill="#ADD1B2" rx="11" ry="11" style="stroke:#181818;stroke-width:1;"/><path d="M3658.154,1254.0011 Q3657.2321,1254.0011 3656.4977,1254.3136 Q3655.779,1254.6261 3655.279,1255.2199 Q3654.779,1255.798 3654.4977,1256.673 Q3654.2321,1257.548 3654.2321,1258.6418 Q3654.2321,1260.0793 3654.6696,1261.1261 Q3655.1227,1262.173 3655.9665,1262.7199 Q3656.8258,1263.2668 3658.1383,1263.2668 Q3658.9196,1263.2668 3659.6071,1263.1418 Q3660.3102,1263.0011 3661.3102,1262.6886 L3661.3102,1264.5636 Q3660.4508,1264.8918 3659.6852,1265.0168 Q3658.9352,1265.1418 3657.9196,1265.1418 Q3655.9977,1265.1418 3654.6852,1264.3449 Q3653.3883,1263.5324 3652.7321,1262.0636 Q3652.0758,1260.5793 3652.0758,1258.6105 Q3652.0758,1257.1886 3652.4665,1256.0168 Q3652.8727,1254.8293 3653.654,1253.9543 Q3654.4352,1253.0793 3655.5758,1252.6105 Q3656.7165,1252.1261 3658.1852,1252.1261 Q3659.1383,1252.1261 3660.029,1252.3293 Q3660.9352,1252.5168 3661.8727,1252.9855 L3661.0446,1254.7668 Q3660.2633,1254.3918 3659.6071,1254.2043 Q3658.9508,1254.0011 3658.154,1254.0011 Z " fill="#000000"/><text fill="#000000" font-family="sans-serif" font-size="14" lengthAdjust="spacing" textLength="52.6398" x="3678.5446" y="1263.9019">CEffects</text><line style="stroke:#181818;stroke-width:0.5;" x1="3556.67" x2="3820.559" y1="1274.4699" y2="1274.4699"/><text fill="#000000" font-family="sans-serif" font-size="14" lengthAdjust="spacing" textLength="149.9394" x="3561.67" y="1293.4358">-effects: vector&lt;Effect&gt;</text><line style="stroke:#181818;stroke-width:0.5;" x1="3556.67" x2="3820.559" y1="1301.5378" y2="1301.5378"/><text fill="#000000" font-family="sans-serif" font-size="14" lengthAdjust="spacing" textLength="199.0792" x="3561.67" y="1320.5038">+addEffect(effect: Effect) : void</text><text fill="#000000" font-family="sans-serif" font-size="14" lengthAdjust="spacing" textLength="236.4171" x="3561.67" y="1339.5717">+getEffects() : vector&lt;Effect&gt; const&amp;</text><text fill="#000000" font-family="sans-serif" font-size="14" lengthAdjust="spacing" textLength="253.889" x="3561.67" y="1358.6396">+removeEffect(type: EffectTypes) : void</text><text fill="#000000" font-family="sans-serif" font-size="14" lengthAdjust="spacing" textLength="228.2131" x="3561.67" y="1377.7075">+hasEffect(type: EffectTypes) : bool</text><text fill="#000000" font-family="sans-serif" font-size="14" lengthAdjust="spacing" textLength="130.8995" x="3561.67" y="1396.7754">+clearEffects() : void</text></g><!--class CBounceTracker--><g class="entity" data-entity="CBounceTracker" data-source-line="159" data-uid="ent0025" id="entity_CBounceTracker"><rect fill="#F1F1F1" height="105.2038" rx="2.5" ry="2.5" style="stroke:#181818;stroke-width:0.5;" width="141.8075" x="3617.71" y="1102.0699"/><ellipse cx="3633.6892" cy="1118.0699" fill="#ADD1B2" rx="11" ry="11" style="stroke:#181818;stroke-width:1;"/><path d="M3633.7985,1113.6011 Q3632.8767,1113.6011 3632.1423,1113.9136 Q3631.4235,1114.2261 3630.9235,1114.8199 Q3630.4235,1115.398 3630.1423,1116.273 Q3629.8767,1117.148 3629.8767,1118.2418 Q3629.8767,1119.6793 3630.3142,1120.7261 Q3630.7673,1121.773 3631.611,1122.3199 Q3632.4704,1122.8668 3633.7829,1122.8668 Q3634.5642,1122.8668 3635.2517,1122.7418 Q3635.9548,1122.6011 3636.9548,1122.2886 L3636.9548,1124.1636 Q3636.0954,1124.4918 3635.3298,1124.6168 Q3634.5798,1124.7418 3633.5642,1124.7418 Q3631.6423,1124.7418 3630.3298,1123.9449 Q3629.0329,1123.1324 3628.3767,1121.6636 Q3627.7204,1120.1793 3627.7204,1118.2105 Q3627.7204,1116.7886 3628.111,1115.6168 Q3628.5173,1114.4293 3629.2985,1113.5543 Q3630.0798,1112.6793 3631.2204,1112.2105 Q3632.361,1111.7261 3633.8298,1111.7261 Q3634.7829,1111.7261 3635.6735,1111.9293 Q3636.5798,1112.1168 3637.5173,1112.5855 L3636.6892,1114.3668 Q3635.9079,1113.9918 3635.2517,1113.8043 Q3634.5954,1113.6011 3633.7985,1113.6011 Z " fill="#000000"/><text fill="#000000" font-family="sans-serif" font-size="14" lengthAdjust="spacing" textLength="107.6316" x="3647.9068" y="1123.5019">CBounceTracker</text><line style="stroke:#181818;stroke-width:0.5;" x1="3618.71" x2="3758.5175" y1="1134.0699" y2="1134.0699"/><text fill="#000000" font-family="sans-serif" font-size="14" lengthAdjust="spacing" textLength="104.2296" x="3623.71" y="1153.0358">-m_bounces: int</text><line style="stroke:#181818;stroke-width:0.5;" x1="3618.71" x2="3758.5175" y1="1161.1378" y2="1161.1378"/><text fill="#000000" font-family="sans-serif" font-size="14" lengthAdjust="spacing" textLength="129.8075" x="3623.71" y="1180.1038">+addBounce() : void</text><text fill="#000000" font-family="sans-serif" font-size="14" lengthAdjust="spacing" textLength="122.5135" x="3623.71" y="1199.1717">+getBounces() : int</text></g><!--class CSprite--><g class="entity" data-entity="CSprite" data-source-line="165" data-uid="ent0026" id="entity_CSprite"><rect fill="#F1F1F1" height="105.2038" rx="2.5" ry="2.5" style="stroke:#181818;stroke-width:0.5;" width="220.6692" x="3578.28" y="962.0699"/><ellipse cx="3660.6207" cy="978.0699" fill="#ADD1B2" rx="11" ry="11" style="stroke:#181818;stroke-width:1;"/><path d="M3660.7301,973.6011 Q3659.8082,973.6011 3659.0738,973.9136 Q3658.3551,974.2261 3657.8551,974.8199 Q3657.3551,975.398 3657.0738,976.273 Q3656.8082,977.148 3656.8082,978.2418 Q3656.8082,979.6793 3657.2457,980.7261 Q3657.6988,981.773 3658.5426,982.3199 Q3659.4019,982.8668 3660.7144,982.8668 Q3661.4957,982.8668 3662.1832,982.7418 Q3662.8863,982.6011 3663.8863,982.2886 L3663.8863,984.1636 Q3663.0269,984.4918 3662.2613,984.6168 Q3661.5113,984.7418 3660.4957,984.7418 Q3658.5738,984.7418 3657.2613,983.9449 Q3655.9644,983.1324 3655.3082,981.6636 Q3654.6519,980.1793 3654.6519,978.2105 Q3654.6519,976.7886 3655.0426,975.6168 Q3655.4488,974.4293 3656.2301,973.5543 Q3657.0113,972.6793 3658.1519,972.2105 Q3659.2926,971.7261 3660.7613,971.7261 Q3661.7144,971.7261 3662.6051,971.9293 Q3663.5113,972.1168 3664.4488,972.5855 L3663.6207,974.3668 Q3662.8394,973.9918 3662.1832,973.8043 Q3661.5269,973.6011 3660.7301,973.6011 Z " fill="#000000"/><text fill="#000000" font-family="sans-serif" font-size="14" lengthAdjust="spacing" textLength="47.4878" x="3681.1207" y="983.5019">CSprite</text><line style="stroke:#181818;stroke-width:0.5;" x1="3579.28" x2="3797.9492" y1="994.0699" y2="994.0699"/><text fill="#000000" font-family="sans-serif" font-size="14" lengthAdjust="spacing" textLength="168.5873" x="3584.28" y="1013.0358">-m_texture: SDL_Texture*</text><line style="stroke:#181818;stroke-width:0.5;" x1="3579.28" x2="3797.9492" y1="1021.1378" y2="1021.1378"/><text fill="#000000" font-family="sans-serif" font-size="14" lengthAdjust="spacing" textLength="208.6692" x="3584.28" y="1040.1038">+CSprite(texture: SDL_Texture*)</text><text fill="#000000" font-family="sans-serif" font-size="14" lengthAdjust="spacing" textLength="189.1113" x="3584.28" y="1059.1717">+getTexture() : SDL_Texture*</text></g><g class="entity" data-entity="GMN47" data-source-line="199" data-uid="ent0048" id="entity_GMN47"><path d="M6,751.9599 L6,797.3719 A0,0 0 0 0 6,797.3719 L341.4052,797.3719 A0,0 0 0 0 341.4052,797.3719 L341.4052,778.6699 L403.95,774.6699 L341.4052,770.6699 L341.4052,761.9599 L331.4052,751.9599 L6,751.9599 A0,0 0 0 0 6,751.9599" fill="#FEFFDD" style="stroke:#181818;stroke-width:0.5;"/><path d="M331.4052,751.9599 L331.4052,761.9599 L341.4052,761.9599 L331.4052,751.9599" fill="#FEFFDD" style="stroke:#181818;stroke-width:0.5;"/><text fill="#000000" font-family="sans-serif" font-size="13" lengthAdjust="spacing" textLength="273.8322" x="12" y="770.8569">Initializes managers and hosts the main loop</text><text fill="#000000" font-family="sans-serif" font-size="13" lengthAdjust="spacing" textLength="314.4052" x="12" y="788.5629">Provides access to configuration and scene lifecycle</text></g><g class="entity" data-entity="GMN50" data-source-line="204" data-uid="ent0051" id="entity_GMN50"><path d="M2497.04,2074.8199 L2497.04,2102.5259 L2853.1543,2102.5259 L2853.1543,2084.8199 L2843.1543,2074.8199 L2497.04,2074.8199" fill="#FEFFDD" style="stroke:#181818;stroke-width:0.5;"/><path d="M2843.1543,2074.8199 L2843.1543,2084.8199 L2853.1543,2084.8199 L2843.1543,2074.8199" fill="#FEFFDD" style="stroke:#181818;stroke-width:1;"/><text fill="#000000" font-family="sans-serif" font-size="13" lengthAdjust="spacing" textLength="335.1143" x="2503.04" y="2093.7169">Tag-based lookups and shared_ptr component storage</text></g><!--link GameEngine to FontManager--><g class="link" data-entity-1="GameEngine" data-entity-2="FontManager" data-source-line="173" data-uid="lnk27" id="link_GameEngine_FontManager"><path codeLine="173" d="M692.27,626.2399 C748.95,531.3899 834.76,413.4899 942.28,343.6699 C1109.73,234.9299 1336.8175,200.2974 1482.8775,189.1274" fill="none" id="GameEngine-to-FontManager" style="stroke:#181818;stroke-width:1;"/><polygon fill="#181818" points="1488.86,188.6699,1479.5812,185.3678,1483.8746,189.0512,1480.1912,193.3445,1488.86,188.6699" style="stroke:#181818;stroke-width:1;"/><text fill="#000000" font-family="sans-serif" font-size="13" lengthAdjust="spacing" textLength="32.344" x="1096.16" y="208.0169">owns</text></g><!--link GameEngine to TextureManager--><g class="link" data-entity-1="GameEngine" data-entity-2="TextureManager" data-source-line="174" data-uid="lnk28" id="link_GameEngine_TextureManager"><path codeLine="174" d="M824.52,666.2499 C834.56,661.2799 844.52,656.3999 854.28,651.6699 C892.95,632.9399 901.5,625.1799 942.28,611.6699 C1130.66,549.2499 1351.2201,507.1672 1490.2901,484.2072" fill="none" id="GameEngine-to-TextureManager" style="stroke:#181818;stroke-width:1;"/><polygon fill="#181818" points="1496.21,483.2299,1486.6786,480.7493,1491.2768,484.0444,1487.9818,488.6425,1496.21,483.2299" style="stroke:#181818;stroke-width:1;"/><text fill="#000000" font-family="sans-serif" font-size="13" lengthAdjust="spacing" textLength="32.344" x="1096.16" y="515.2469">owns</text></g><!--link GameEngine to AudioManager--><g class="link" data-entity-1="GameEngine" data-entity-2="AudioManager" data-source-line="175" data-uid="lnk29" id="link_GameEngine_AudioManager"><path codeLine="175" d="M824.46,723.0699 C863.39,715.4099 903.89,708.7299 942.28,704.6699 C1103.06,687.6499 1145.99,681.8499 1306.05,704.6699 C1315.11,705.9599 1387.7758,727.0701 1464.6558,749.7801" fill="none" id="GameEngine-to-AudioManager" style="stroke:#181818;stroke-width:1;"/><polygon fill="#181818" points="1470.41,751.4799,1462.9119,745.0941,1465.6148,750.0634,1460.6455,752.7664,1470.41,751.4799" style="stroke:#181818;stroke-width:1;"/><text fill="#000000" font-family="sans-serif" font-size="13" lengthAdjust="spacing" textLength="32.344" x="1096.16" y="685.5469">owns</text></g><!--link GameEngine to AudioSampleQueue--><g class="link" data-entity-1="GameEngine" data-entity-2="AudioSampleQueue" data-source-line="176" data-uid="lnk30" id="link_GameEngine_AudioSampleQueue"><path codeLine="176" d="M757.41,626.4899 C811.24,577.6499 875.69,527.0899 942.28,492.6699 C1090.73,415.9299 1269.642,373.9387 1409.632,350.5487" fill="none" id="GameEngine-to-AudioSampleQueue" style="stroke:#181818;stroke-width:1;"/><polygon fill="#181818" points="1415.55,349.5599,1406.0139,347.0978,1410.6184,350.3839,1407.3323,354.9884,1415.55,349.5599" style="stroke:#181818;stroke-width:1;"/><text fill="#000000" font-family="sans-serif" font-size="13" lengthAdjust="spacing" textLength="32.344" x="1096.16" y="367.0169">owns</text></g><!--link GameEngine to VideoManager--><g class="link" data-entity-1="GameEngine" data-entity-2="VideoManager" data-source-line="177" data-uid="lnk31" id="link_GameEngine_VideoManager"><path codeLine="177" d="M824.77,696.3699 C834.72,693.0199 844.6,689.7699 854.28,686.6699 C892.89,674.3199 902.16,668.4899 942.28,662.6699 C1142.49,633.6199 1373.1245,636.3784 1508.8445,641.6184" fill="none" id="GameEngine-to-VideoManager" style="stroke:#181818;stroke-width:1;"/><polygon fill="#181818" points="1514.84,641.8499,1506.001,637.5057,1509.8437,641.657,1505.6924,645.4997,1514.84,641.8499" style="stroke:#181818;stroke-width:1;"/><text fill="#000000" font-family="sans-serif" font-size="13" lengthAdjust="spacing" textLength="32.344" x="1096.16" y="634.5169">owns</text></g><!--link GameEngine to ConfigAdapter--><g class="link" data-entity-1="GameEngine" data-entity-2="ConfigAdapter" data-source-line="178" data-uid="lnk32" id="link_GameEngine_ConfigAdapter"><path codeLine="178" d="M667.58,923.0199 C774.68,1227.1599 1013.2872,1904.7305 1087.1672,2114.5405" fill="none" id="GameEngine-to-ConfigAdapter" style="stroke:#181818;stroke-width:1;"/><polygon fill="#181818" points="1089.16,2120.1999,1089.9437,2110.3823,1087.4993,2115.4837,1082.3978,2113.0394,1089.16,2120.1999" style="stroke:#181818;stroke-width:1;"/><text fill="#000000" font-family="sans-serif" font-size="13" lengthAdjust="spacing" textLength="27.82" x="869.78" y="1474.5669">uses</text></g><!--link GameEngine to Scene--><g class="link" data-entity-1="GameEngine" data-entity-2="Scene" data-source-line="179" data-uid="lnk33" id="link_GameEngine_Scene"><path codeLine="179" d="M824.54,794.9199 C863.68,798.7099 898.1679,802.0525 935.9179,805.7025" fill="none" id="GameEngine-to-Scene" style="stroke:#181818;stroke-width:1;"/><polygon fill="#181818" points="941.89,806.2799,933.3167,801.4323,936.9132,805.7987,932.5468,809.3952,941.89,806.2799" style="stroke:#181818;stroke-width:1;"/><text fill="#000000" font-family="sans-serif" font-size="13" lengthAdjust="spacing" textLength="56.329" x="855.28" y="794.5669">manages</text></g><!--link Scene to EntityManager--><g class="link" data-entity-1="Scene" data-entity-2="EntityManager" data-source-line="181" data-uid="lnk34" id="link_Scene_EntityManager"><path codeLine="181" d="M1189.05,923.2199 C1285.93,1051.5999 1448.9759,1267.6405 1545.9259,1396.1205" fill="none" id="Scene-to-EntityManager" style="stroke:#181818;stroke-width:1;"/><polygon fill="#181818" points="1549.54,1400.9099,1547.3119,1391.3164,1546.5283,1396.9187,1540.926,1396.1351,1549.54,1400.9099" style="stroke:#181818;stroke-width:1;"/><text fill="#000000" font-family="sans-serif" font-size="13" lengthAdjust="spacing" textLength="27.82" x="1318.55" y="1097.2469">uses</text></g><!--link Scene to TextureManager--><g class="link" data-entity-1="Scene" data-entity-2="TextureManager" data-source-line="182" data-uid="lnk35" id="link_Scene_TextureManager"><path codeLine="182" d="M1280.53,721.9399 C1289.66,713.6099 1298.27,704.8399 1306.05,695.6699 C1342.85,652.2699 1317.56,618.6599 1358.05,578.6699 C1395.99,541.1899 1442.4707,517.1462 1490.6207,499.3862" fill="none" id="Scene-to-TextureManager" style="stroke:#181818;stroke-width:1;"/><polygon fill="#181818" points="1496.25,497.3099,1486.4219,496.6716,1491.5589,499.0402,1489.1903,504.1773,1496.25,497.3099" style="stroke:#181818;stroke-width:1;"/><text fill="#000000" font-family="sans-serif" font-size="13" lengthAdjust="spacing" textLength="27.82" x="1318.55" y="584.0469">uses</text></g><!--link Scene to AudioManager--><g class="link" data-entity-1="Scene" data-entity-2="AudioManager" data-source-line="183" data-uid="lnk36" id="link_Scene_AudioManager"><path codeLine="183" d="M1282.37,814.4099 C1342.86,811.4599 1404.6971,808.442 1463.9871,805.552" fill="none" id="Scene-to-AudioManager" style="stroke:#181818;stroke-width:1;"/><polygon fill="#181818" points="1469.98,805.2599,1460.7959,801.7028,1464.9859,805.5033,1461.1854,809.6933,1469.98,805.2599" style="stroke:#181818;stroke-width:1;"/><text fill="#000000" font-family="sans-serif" font-size="13" lengthAdjust="spacing" textLength="27.82" x="1318.55" y="807.5669">uses</text></g><!--link ConfigAdapter to ConfigStore--><g class="link" data-entity-1="ConfigAdapter" data-entity-2="ConfigStore" data-source-line="185" data-uid="lnk37" id="link_ConfigAdapter_ConfigStore"><path codeLine="185" d="M1253.18,2202.3399 C1331.86,2213.3999 1423.1384,2226.2251 1498.5084,2236.8151" fill="none" id="ConfigAdapter-to-ConfigStore" style="stroke:#181818;stroke-width:1;"/><polygon fill="#181818" points="1504.45,2237.6499,1496.0941,2232.4365,1499.4986,2236.9542,1494.981,2240.3587,1504.45,2237.6499" style="stroke:#181818;stroke-width:1;"/><text fill="#000000" font-family="sans-serif" font-size="13" lengthAdjust="spacing" textLength="34.697" x="1315.05" y="2208.1169">backs</text></g><!--link JsonConfigProvider to ConfigStore--><g class="link" data-entity-1="JsonConfigProvider" data-entity-2="ConfigStore" data-source-line="186" data-uid="lnk38" id="link_JsonConfigProvider_ConfigStore"><path codeLine="186" d="M1251.83,2297.6999 C1330.82,2288.6099 1422.8794,2278.006 1498.7194,2269.276" fill="none" id="JsonConfigProvider-to-ConfigStore" style="stroke:#181818;stroke-width:1;"/><polygon fill="#181818" points="1504.68,2268.5899,1495.2816,2265.6453,1499.7128,2269.1617,1496.1965,2273.5929,1504.68,2268.5899" style="stroke:#181818;stroke-width:1;"/><text fill="#000000" font-family="sans-serif" font-size="13" lengthAdjust="spacing" textLength="32.734" x="1316.05" y="2283.5969">loads</text></g><!--link EntityManager to Entity--><g class="link" data-entity-1="EntityManager" data-entity-2="Entity" data-source-line="188" data-uid="lnk39" id="link_EntityManager_Entity"><path codeLine="188" d="M1871.29,1501.6699 C1922.7,1501.6699 1973.21,1501.6699 2031.7,1501.6699" fill="none" id="EntityManager-to-Entity" style="stroke:#181818;stroke-width:1;"/><polygon fill="#181818" points="2037.7,1501.6699,2028.7,1497.6699,2032.7,1501.6699,2028.7,1505.6699,2037.7,1501.6699" style="stroke:#181818;stroke-width:1;"/><text fill="#000000" font-family="sans-serif" font-size="13" lengthAdjust="spacing" textLength="105.6511" x="1902.12" y="1497.5669">creates/manages</text></g><!--reverse link Entity to CTransform--><g class="link" data-entity-1="Entity" data-entity-2="CTransform" data-source-line="189" data-uid="lnk40" id="link_Entity_CTransform"><path codeLine="189" d="M2916.6906,1656.1888 C3061.1606,1744.1188 3243.57,1846.1699 3425.06,1919.6699 C3462.01,1934.6299 3503.17,1947.3399 3541.74,1957.6599" fill="none" id="Entity-backto-CTransform" style="stroke:#181818;stroke-width:1;"/><polygon fill="#181818" points="2906.44,1649.9499,2909.4857,1656.4862,2916.6906,1656.1888,2913.645,1649.6525,2906.44,1649.9499" style="stroke:#181818;stroke-width:1;"/><text fill="#000000" font-family="sans-serif" font-size="13" lengthAdjust="spacing" textLength="51.7401" x="3343.06" y="1888.4769">contains</text></g><!--reverse link Entity to CShape--><g class="link" data-entity-1="Entity" data-entity-2="CShape" data-source-line="190" data-uid="lnk41" id="link_Entity_CShape"><path codeLine="190" d="M3109.3879,1653.8919 C3215.8579,1690.5019 3318.78,1725.1799 3425.06,1759.6699 C3442.74,1765.4099 3461.12,1771.2499 3479.59,1777.0399" fill="none" id="Entity-backto-CShape" style="stroke:#181818;stroke-width:1;"/><polygon fill="#181818" points="3098.04,1649.9899,3102.4133,1655.7235,3109.3879,1653.8919,3105.0146,1648.1583,3098.04,1649.9899" style="stroke:#181818;stroke-width:1;"/><text fill="#000000" font-family="sans-serif" font-size="13" lengthAdjust="spacing" textLength="51.7401" x="3343.06" y="1728.8069">contains</text></g><!--reverse link Entity to CInput--><g class="link" data-entity-1="Entity" data-entity-2="CInput" data-source-line="191" data-uid="lnk42" id="link_Entity_CInput"><path codeLine="191" d="M3324.2359,1609.9574 C3455.6159,1631.9074 3562.54,1649.7699 3629.81,1661.0099" fill="none" id="Entity-backto-CInput" style="stroke:#181818;stroke-width:1;"/><polygon fill="#181818" points="3312.4,1607.9799,3317.6588,1612.9139,3324.2359,1609.9574,3318.9771,1605.0233,3312.4,1607.9799" style="stroke:#181818;stroke-width:1;"/><text fill="#000000" font-family="sans-serif" font-size="13" lengthAdjust="spacing" textLength="51.7401" x="3343.06" y="1611.9069">contains</text></g><!--reverse link Entity to CLifespan--><g class="link" data-entity-1="Entity" data-entity-2="CLifespan" data-source-line="192" data-uid="lnk43" id="link_Entity_CLifespan"><path codeLine="192" d="M3324.4,1501.6699 C3433.02,1501.6699 3521.03,1501.6699 3590.43,1501.6699" fill="none" id="Entity-backto-CLifespan" style="stroke:#181818;stroke-width:1;"/><polygon fill="#181818" points="3312.4,1501.6699,3318.4,1505.6699,3324.4,1501.6699,3318.4,1497.6699,3312.4,1501.6699" style="stroke:#181818;stroke-width:1;"/><text fill="#000000" font-family="sans-serif" font-size="13" lengthAdjust="spacing" textLength="51.7401" x="3343.06" y="1497.5669">contains</text></g><!--reverse link Entity to CEffects--><g class="link" data-entity-1="Entity" data-entity-2="CEffects" data-source-line="193" data-uid="lnk44" id="link_Entity_CEffects"><path codeLine="193" d="M3324.2183,1387.6196 C3415.6283,1371.5296 3489.11,1358.5999 3555.21,1346.9699" fill="none" id="Entity-backto-CEffects" style="stroke:#181818;stroke-width:1;"/><polygon fill="#181818" points="3312.4,1389.6999,3319.0026,1392.5992,3324.2183,1387.6196,3317.6157,1384.7203,3312.4,1389.6999" style="stroke:#181818;stroke-width:1;"/><text fill="#000000" font-family="sans-serif" font-size="13" lengthAdjust="spacing" textLength="51.7401" x="3343.06" y="1372.1669">contains</text></g><!--reverse link Entity to CBounceTracker--><g class="link" data-entity-1="Entity" data-entity-2="CBounceTracker" data-source-line="194" data-uid="lnk45" id="link_Entity_CBounceTracker"><path codeLine="194" d="M3067.4154,1349.0717 C3184.8854,1305.3217 3303.99,1263.1099 3425.06,1224.6699 C3489.59,1204.1899 3564.27,1184.6699 3617.45,1171.4799" fill="none" id="Entity-backto-CBounceTracker" style="stroke:#181818;stroke-width:1;"/><polygon fill="#181818" points="3056.17,1353.2599,3063.1888,1354.9143,3067.4154,1349.0717,3060.3966,1347.4173,3056.17,1353.2599" style="stroke:#181818;stroke-width:1;"/><text fill="#000000" font-family="sans-serif" font-size="13" lengthAdjust="spacing" textLength="51.7401" x="3343.06" y="1233.7369">contains</text></g><!--reverse link Entity to CSprite--><g class="link" data-entity-1="Entity" data-entity-2="CSprite" data-source-line="195" data-uid="lnk46" id="link_Entity_CSprite"><path codeLine="195" d="M2917.5686,1347.054 C3061.9586,1259.424 3243.98,1157.8999 3425.06,1084.6699 C3473.94,1064.9099 3530.17,1049.0599 3578.03,1037.4699" fill="none" id="Entity-backto-CSprite" style="stroke:#181818;stroke-width:1;"/><polygon fill="#181818" points="2907.31,1353.2799,2914.5146,1353.5865,2917.5686,1347.054,2910.364,1346.7474,2907.31,1353.2799" style="stroke:#181818;stroke-width:1;"/><text fill="#000000" font-family="sans-serif" font-size="13" lengthAdjust="spacing" textLength="51.7401" x="3343.06" y="1098.3069">contains</text></g><!--link EntityManager to GMN50--><g class="link" data-entity-1="EntityManager" data-entity-2="GMN50" data-source-line="204" data-uid="lnk52" id="link_EntityManager_GMN50"><path d="M1668.44,1602.1899 C1727.92,1733.6899 1851.98,1959.0499 2038.12,2058.6699 C2224.75,2158.5499 2488.04,2125.7899 2608.86,2102.9399" fill="none" id="EntityManager-GMN50" style="stroke:#181818;stroke-width:1;stroke-dasharray:7,7;"/></g><!--SRC=[ZLXVR-Cs37_tfn3keNDx2JOCmnwC8a2MzeOC7N1hSZVigL0i9X7gI3v9RfSRxhkF-cDRikDkBt5C_aYH54bHhc1lY954ySFH4COLb8PBaUbdBcggw8cK5TLwQOpYkyR0kfHYmxy2-I66o5Cj1GYpCUSAYDL1nQ62p723xt-1sjsB0nT0vkGE3EKLCBAoUiaTfmTKaMNVaPLKaDMqVAO78E_isploJqQy0UHNUeAWn189gZezxQKmlrE10geWsh2YQ0J_qi1JRTJjXvwvw2GC_6qQ1PD2suJVoz66SJafjOou0vaDFTKL_D500nDo4QANVU4CfjVx775x6ToQFJyK64ZxN39Q6r0tFRjHokvH2SAQSgGAcDFcABqQrGZ11UhPILavwlie-hbVvICrHskNGkHr03r8ofokN22yvSw8dbZncXJaHNBMhW76MvvRHkB4LO0yDY8VI7sg6JNm86MTCwWCBSY-ajH4g6yP_j0TMaDB4xB96H0bqg7phuXylGbhUATWp6yzV-7ADBGYZJDcof0OgHz1C53v5FjEBbqXvjGz2k9VhwRmBfEcj4bnBzWqqxdt9nTClZw2nkBENml2XPcHeticiSHeTZKQCb3xEkt8Iwt1a9JPbd5Kb87ULx8ko8dMjstQMEWYGDuJZ2MpbBoECWzp2ytjZBJyzLqdSW3Z93XhMIt8GLnUj7QbTP-O5bh6mBeWa1eOY8cDTir0JsrhmTQy3X2XnqOEsqLavXVVO1ZWdxYjzFOvX2VcsZtMk704NT_DS9khnfRkE7MjYf3U2VrRMs7Tzc_Esi1fOl_ZJfb66QlpESJOWRQMW76sZzwBkg9dHygTG70WO2li0dgOibxkX6UNG-bynCEzMFdUs2jpgFvrl1Tn2uuSKQwiRS_Ut3qyFOQtctYjbkYMc4JvUhH7hSDzXlB7ADxV_85fMsIZgEqCH3SxxI8Vdw4H83vCFMDZy8oDck0BhPfXclld8kliof_X7AUs_nVuEkLZFbcLCJpkoTwMtxGKtfwFIjfZhmrdg7abJnzmO1ZLLEH3gZ0vEJhtj0KcKZUzKsini9l1liiZ7lg5RoYsC2vWku9nVthyne4k25o8ODZMUu5Zqtc-QeSgiXbiw_rg4s-cnwUfQBSJB9tR3Nt1WKogs-W0zZABQ2wIIyR-5nB2SdL16Y6LpLpsP5F68xVqe6Tlw8cNDBIwxuoqdVofZHnbp0laXk8aqgjs0HjfxUFTwlDLFcd5rGM92olzju9nIumoqOEZBR67-Gj4avKbsluVEUz2aveIJNWX9p1Ufi6U7Pksmaubz5wgqs8MnsYrET8Q1hIrg1ipe3tmFUYQYW7vVh_7CEW1zHVPYDAtL9n11mlMYXjOjDl2zTBvxQ8K3PNefICD74K1Fwma6S40wqIUXrECxTqO3r0VfKuRfUUr0RlTBl91xcmNVTTAS0bci9w2ato1aTe8SQHwn0vEnqsgswmkFOoi7_0sXXSVuTo9V9bZ9bQon2Wb3lPAybfgxWT5ovyDyDU3nLr6T0k_TMRDtMskvPHjYfQoaW6_idzRWvpYV48XpfDWhvcXISx8AsUsfuUteSwXqIvbEwFHwrUgM59BEqp64R72c2O4vMs84j6hpeSBjlNGhRd3aVcuvNP0-eIdmiy_jKi4O49-tol8hqUKeSXmxL1qtTBWtxkMvFcBg5qwGkvnM5FkEIwMe3TkZq4LnbzeSvNaUL1gpZMqAhVuNuzJ_Yra5Eco0geI6qPDC-qiKVFSERgE3sJqswClj0NFyAjuYQG2N8kAj8Sft-TVcC1lkhHswFmYvZeRJVJjO1Uf2MVx8rHk6DD7Nkii-gOndo-Ikr51vAiO8GQtbCkWPCH-0n9V92x3aXdtCYGTjd0aq332-CksdIkj9frbdc1PwUmIn7lsoDy1V-2gusQfIRsHVjmjN9VGsOMnSmor0oXgJAtixKP4gG3FV_rzwrjWtCpdSOilR74PoaKAy6ruWkdRtGIpQqqJ_BPzJB3J4fkopfT8nCqo8P5YEogH- -X322RuMk3vGoiyidNOQAK95OmSfKP3p16Gp8Mxeo4y11qX9HQfjfyWo-GwOqNTXoFNNSipTeuC3n9YBGXs-6-MQ4YoFwWSHudvZcfWThNdflQ6zCTw_y7INGjGgbVzBm00]--></g></svg>